<svg xmlns="http://www.w3.org/2000/svg" viewBox="0 0 1280 1230" role="img" aria-labelledby="title desc">
  <title id="title">VITAL-Rec model architecture</title>
  <desc id="desc">User tower and item tower process IDs, review text, images, and item description through projections, gated fusion, ID-conditioned towers, cross-tower interaction, residual blocks, and a rating head.</desc>
  <defs>
    <marker id="arrow" markerWidth="9" markerHeight="9" refX="7" refY="4.5" orient="auto" markerUnits="strokeWidth">
      <path d="M0 0 L8 4.5 L0 9 Z" fill="#c8c8bf"/>
    </marker>
    <filter id="softGlow" x="-20%" y="-20%" width="140%" height="140%">
      <feGaussianBlur stdDeviation="5" result="blur"/>
      <feColorMatrix in="blur" type="matrix" values="0 0 0 0 0.1 0 0 0 0 0.9 0 0 0 0 0.75 0 0 0 .24 0"/>
      <feMerge><feMergeNode/><feMergeNode in="SourceGraphic"/></feMerge>
    </filter>
    <style>
      .bg{fill:#050606}.user{fill:#075642;stroke:#35d6b7}.item{fill:#40358d;stroke:#a59bff}.shared{fill:#43433f;stroke:#b9b9af}.wire{fill:none;stroke:#bdbdb4;stroke-width:3;marker-end:url(#arrow)}.wire-soft{fill:none;stroke:#8f8f87;stroke-width:3}.label{fill:#e7e5dc;font:700 27px -apple-system,BlinkMacSystemFont,"Segoe UI",sans-serif}.sub{fill:#bdb9f4;font:500 22px -apple-system,BlinkMacSystemFont,"Segoe UI",sans-serif}.usub{fill:#72d9bf}.ssub{fill:#c8c8bf}.tiny{fill:#e0ded3;font:700 18px ui-monospace,SFMono-Regular,Consolas,monospace}.legend{fill:#e7e5dc;font:700 22px -apple-system,BlinkMacSystemFont,"Segoe UI",sans-serif}.box{rx:14;ry:14;stroke-width:2}.small{font-size:24px}.mid{font-size:25px}.mono{font-family:ui-monospace,SFMono-Regular,Consolas,monospace}
    </style>
  </defs>
  <rect class="bg" width="1280" height="1230" rx="28"/>
  <g opacity=".28" filter="url(#softGlow)"><path d="M95 775 C320 615 405 318 610 420 C777 503 847 222 1180 135" stroke="#2dd4bf" stroke-width="2" fill="none"/><path d="M260 210 C487 332 573 712 819 620 C961 566 1031 712 1194 608" stroke="#a78bfa" stroke-width="2" fill="none"/></g>

  <g transform="translate(300 38)"><rect x="0" y="0" width="22" height="22" rx="5" fill="#0b5d48" stroke="#47dcc4" stroke-width="2"/><text class="legend" x="36" y="20">User tower</text></g>
  <g transform="translate(545 38)"><rect x="0" y="0" width="22" height="22" rx="5" fill="#493f9a" stroke="#aaa0ff" stroke-width="2"/><text class="legend" x="36" y="20">Item tower</text></g>
  <g transform="translate(790 38)"><rect x="0" y="0" width="22" height="22" rx="5" fill="#444440" stroke="#c6c6bc" stroke-width="2"/><text class="legend" x="36" y="20">Shared / merge</text></g>

  <!-- Inputs -->
  <g>
    <rect class="box user" x="90" y="95" width="170" height="88"/><text class="label" x="175" y="145" text-anchor="middle">User ID</text>
    <rect class="box user" x="280" y="95" width="170" height="88"/><text class="label" x="365" y="132" text-anchor="middle">Review</text><text class="sub usub" x="365" y="163" text-anchor="middle">RoBERTa</text>
    <rect class="box user" x="470" y="95" width="170" height="88"/><text class="label" x="555" y="132" text-anchor="middle">Image</text><text class="sub usub" x="555" y="163" text-anchor="middle">ViT</text>
    <rect class="box item" x="720" y="95" width="170" height="88"/><text class="label" x="805" y="132" text-anchor="middle">Image</text><text class="sub" x="805" y="163" text-anchor="middle">ViT</text>
    <rect class="box item" x="910" y="95" width="170" height="88"/><text class="label" x="995" y="132" text-anchor="middle">Desc</text><text class="sub" x="995" y="163" text-anchor="middle">RoBERTa</text>
    <rect class="box item" x="1100" y="95" width="170" height="88"/><text class="label" x="1185" y="145" text-anchor="middle">Item ID</text>
  </g>

  <path class="wire" d="M175 183 V238"/><path class="wire" d="M365 183 V238"/><path class="wire" d="M555 183 V238"/>
  <path class="wire" d="M805 183 V238"/><path class="wire" d="M995 183 V238"/><path class="wire" d="M1185 183 V238"/>

  <!-- Projection -->
  <rect class="box user" x="85" y="242" width="170" height="88"/><text class="label mid" x="170" y="284" text-anchor="middle">ID proj.</text><text class="sub usub" x="170" y="315" text-anchor="middle">Dense+LN</text>
  <rect class="box user" x="285" y="242" width="365" height="88"/><text class="label mid" x="467" y="284" text-anchor="middle">Modality projection</text><text class="sub usub" x="467" y="315" text-anchor="middle">LN→Dense→LN→act</text>
  <rect class="box item" x="715" y="242" width="365" height="88"/><text class="label mid" x="897" y="284" text-anchor="middle">Modality projection</text><text class="sub" x="897" y="315" text-anchor="middle">LN→Dense→LN→act</text>
  <rect class="box item" x="1110" y="242" width="160" height="88"/><text class="label mid" x="1190" y="284" text-anchor="middle">ID proj.</text><text class="sub" x="1190" y="315" text-anchor="middle">Dense+LN</text>

  <path class="wire" d="M467 330 V385"/><path class="wire" d="M897 330 V385"/>

  <!-- Gated fusion -->
  <rect class="box user" x="285" y="388" width="365" height="88"/><text class="label mid" x="467" y="431" text-anchor="middle">Gated fusion</text><text class="sub usub" x="467" y="461" text-anchor="middle">per-dim sigmoid gate</text>
  <rect class="box item" x="715" y="388" width="365" height="88"/><text class="label mid" x="897" y="431" text-anchor="middle">Gated fusion</text><text class="sub" x="897" y="461" text-anchor="middle">per-dim sigmoid gate</text>
  <path class="wire" d="M467 476 V535"/><path class="wire" d="M897 476 V535"/>

  <!-- ID conditioned towers -->
  <rect class="box user" x="175" y="535" width="475" height="112"/><text class="label mid" x="412" y="591" text-anchor="middle">ID-conditioned tower</text><text class="sub usub" x="412" y="624" text-anchor="middle">[id; mm; id⊙mm] → res. MLP</text>
  <rect class="box item" x="715" y="535" width="475" height="112"/><text class="label mid" x="952" y="591" text-anchor="middle">ID-conditioned tower</text><text class="sub" x="952" y="624" text-anchor="middle">[id; mm; id⊙mm] → res. MLP</text>
  <path class="wire" d="M170 330 V527 H238"/><path class="wire" d="M1190 330 V527 H1126"/>
  <path class="wire" d="M412 647 V706"/><path class="wire" d="M952 647 V706"/>

  <!-- Representation -->
  <rect class="box user" x="258" y="707" width="310" height="86"/><text class="label mid" x="413" y="750" text-anchor="middle">User tower</text><text class="sub usub" x="413" y="781" text-anchor="middle">representation</text>
  <rect class="box item" x="798" y="707" width="310" height="86"/><text class="label mid" x="953" y="750" text-anchor="middle">Item tower</text><text class="sub" x="953" y="781" text-anchor="middle">representation</text>
  <path class="wire" d="M413 793 V862 H645"/><path class="wire" d="M953 793 V862 H725"/>

  <!-- Side ID wires -->
  <path class="wire-soft" d="M100 330 V876 H210"/><path class="wire" d="M100 330 V876 H210"/><text class="tiny" x="108" y="854">id_proj</text>
  <path class="wire-soft" d="M1260 330 V876 H1148"/><path class="wire" d="M1260 330 V876 H1148"/><text class="tiny" x="1050" y="854">id_proj</text>

  <!-- Merge and head -->
  <rect class="box shared" x="215" y="850" width="930" height="96"/><text class="label mid" x="680" y="900" text-anchor="middle">Cross-tower interaction</text><text class="sub ssub mono" x="680" y="930" text-anchor="middle">concat: u · i · u⊙i · |u−i| · id⊙id · id·id</text>
  <path class="wire" d="M680 946 V992"/>
  <rect class="box shared" x="420" y="992" width="520" height="92"/><text class="label mid" x="680" y="1044" text-anchor="middle">Residual blocks + rating head</text><text class="sub ssub mono" x="680" y="1075" text-anchor="middle">fusion_dims [128,64] → linear</text>
  <path class="wire" d="M680 1084 V1132"/>
  <rect class="box shared" x="540" y="1132" width="280" height="78"/><text class="label mid" x="680" y="1180" text-anchor="middle">Predicted rating</text>
</svg>
